<mxfile host="app.diagrams.net" agent="Mozilla/5.0 (Windows NT 10.0; Win64; x64) AppleWebKit/537.36 (KHTML, like Gecko) Chrome/136.0.0.0 Safari/537.36" version="27.0.6">
  <diagram name="Página-1" id="M4JXp1UobE5Wb_koeSOw">
    <mxGraphModel grid="1" page="1" gridSize="10" guides="1" tooltips="1" connect="1" arrows="1" fold="1" pageScale="1" pageWidth="827" pageHeight="1169" math="0" shadow="0">
      <root>
        <mxCell id="0" />
        <mxCell id="1" parent="0" />
        <mxCell id="KiaBWQ_Wn1TxJdspiB7a-1" value="&#xa;" style="whiteSpace=wrap;strokeWidth=2;" vertex="1" parent="1">
          <mxGeometry x="20" y="162" width="2423" height="128" as="geometry" />
        </mxCell>
        <mxCell id="KiaBWQ_Wn1TxJdspiB7a-5" value="Sistema" style="ellipse;aspect=fixed;strokeWidth=2;whiteSpace=wrap;" vertex="1" parent="1">
          <mxGeometry x="2088" y="31" width="71" height="71" as="geometry" />
        </mxCell>
        <mxCell id="KiaBWQ_Wn1TxJdspiB7a-6" value="Visualizar Calendário de Viagens" style="whiteSpace=wrap;strokeWidth=2;" vertex="1" parent="1">
          <mxGeometry x="55" y="187" width="260" height="78" as="geometry" />
        </mxCell>
        <mxCell id="KiaBWQ_Wn1TxJdspiB7a-7" value="Filtrar Viagens por Período" style="whiteSpace=wrap;strokeWidth=2;" vertex="1" parent="1">
          <mxGeometry x="365" y="199" width="251" height="54" as="geometry" />
        </mxCell>
        <mxCell id="KiaBWQ_Wn1TxJdspiB7a-8" value="Filtrar Viagens por Motorista" style="whiteSpace=wrap;strokeWidth=2;" vertex="1" parent="1">
          <mxGeometry x="1528" y="187" width="260" height="78" as="geometry" />
        </mxCell>
        <mxCell id="KiaBWQ_Wn1TxJdspiB7a-9" value="Filtrar Viagens por Veículo" style="whiteSpace=wrap;strokeWidth=2;" vertex="1" parent="1">
          <mxGeometry x="666" y="220" width="249" height="54" as="geometry" />
        </mxCell>
        <mxCell id="KiaBWQ_Wn1TxJdspiB7a-10" value="Adicionar Evento ao Calendário" style="whiteSpace=wrap;strokeWidth=2;" vertex="1" parent="1">
          <mxGeometry x="1838" y="187" width="260" height="78" as="geometry" />
        </mxCell>
        <mxCell id="KiaBWQ_Wn1TxJdspiB7a-11" value="Atualizar Evento do Calendário" style="whiteSpace=wrap;strokeWidth=2;" vertex="1" parent="1">
          <mxGeometry x="2148" y="187" width="260" height="78" as="geometry" />
        </mxCell>
        <mxCell id="KiaBWQ_Wn1TxJdspiB7a-12" value="Sincronizar com Calendário Externo" style="whiteSpace=wrap;strokeWidth=2;" vertex="1" parent="1">
          <mxGeometry x="1250" y="230" width="182" height="51" as="geometry" />
        </mxCell>
        <mxCell id="KiaBWQ_Wn1TxJdspiB7a-13" value="Exportar Calendário" style="whiteSpace=wrap;strokeWidth=2;" vertex="1" parent="1">
          <mxGeometry x="970" y="187" width="203" height="54" as="geometry" />
        </mxCell>
        <mxCell id="KiaBWQ_Wn1TxJdspiB7a-14" value="Carregar Dados&#xa;de Viagens" style="whiteSpace=wrap;strokeWidth=2;" vertex="1" parent="1">
          <mxGeometry x="55" y="374" width="260" height="54" as="geometry" />
        </mxCell>
        <mxCell id="KiaBWQ_Wn1TxJdspiB7a-15" value="Validar Dados&#xa;do Evento" style="whiteSpace=wrap;strokeWidth=2;" vertex="1" parent="1">
          <mxGeometry x="1847" y="374" width="242" height="54" as="geometry" />
        </mxCell>
        <mxCell id="KiaBWQ_Wn1TxJdspiB7a-16" value="Autenticar com&#xa;Serviço Externo" style="whiteSpace=wrap;strokeWidth=2;" vertex="1" parent="1">
          <mxGeometry x="791" y="400" width="260" height="78" as="geometry" />
        </mxCell>
        <mxCell id="KiaBWQ_Wn1TxJdspiB7a-17" value="Tratar Erro de&#xa;Sincronização" style="whiteSpace=wrap;strokeWidth=2;" vertex="1" parent="1">
          <mxGeometry x="1377" y="362" width="260" height="78" as="geometry" />
        </mxCell>
        <mxCell id="KiaBWQ_Wn1TxJdspiB7a-18" value="" style="curved=1;startArrow=none;endArrow=block;exitX=0.29;exitY=1;entryX=0.21;entryY=0;rounded=0;" edge="1" parent="1" target="KiaBWQ_Wn1TxJdspiB7a-6">
          <mxGeometry relative="1" as="geometry">
            <Array as="points">
              <mxPoint x="60" y="137" />
              <mxPoint x="60" y="162" />
            </Array>
            <mxPoint x="72.68665584001064" y="108.61746254766592" as="sourcePoint" />
          </mxGeometry>
        </mxCell>
        <mxCell id="KiaBWQ_Wn1TxJdspiB7a-19" value="" style="curved=1;startArrow=none;endArrow=block;exitX=0.59;exitY=1;entryX=0;entryY=0.11;rounded=0;" edge="1" parent="1" target="KiaBWQ_Wn1TxJdspiB7a-7">
          <mxGeometry relative="1" as="geometry">
            <Array as="points">
              <mxPoint x="103" y="137" />
              <mxPoint x="103" y="162" />
            </Array>
            <mxPoint x="97.101336492585" y="111.44855355254299" as="sourcePoint" />
          </mxGeometry>
        </mxCell>
        <mxCell id="KiaBWQ_Wn1TxJdspiB7a-20" value="" style="curved=1;startArrow=none;endArrow=block;exitX=0.74;exitY=1;entryX=0;entryY=0.37;rounded=0;" edge="1" parent="1" target="KiaBWQ_Wn1TxJdspiB7a-13">
          <mxGeometry relative="1" as="geometry">
            <Array as="points">
              <mxPoint x="123" y="137" />
              <mxPoint x="123" y="162" />
            </Array>
            <mxPoint x="109.52395830660498" y="107.65111105409073" as="sourcePoint" />
          </mxGeometry>
        </mxCell>
        <mxCell id="KiaBWQ_Wn1TxJdspiB7a-21" value="" style="curved=1;startArrow=none;endArrow=block;exitX=0;exitY=0.56;entryX=0.5;entryY=0;rounded=0;" edge="1" parent="1" target="KiaBWQ_Wn1TxJdspiB7a-6">
          <mxGeometry relative="1" as="geometry">
            <Array as="points">
              <mxPoint x="186" y="137" />
              <mxPoint x="186" y="162" />
            </Array>
            <mxPoint x="736.1396403495892" y="68.93908187146769" as="sourcePoint" />
          </mxGeometry>
        </mxCell>
        <mxCell id="KiaBWQ_Wn1TxJdspiB7a-22" value="" style="curved=1;startArrow=none;endArrow=block;exitX=0;exitY=0.63;entryX=0.5;entryY=-0.01;rounded=0;" edge="1" parent="1" target="KiaBWQ_Wn1TxJdspiB7a-7">
          <mxGeometry relative="1" as="geometry">
            <Array as="points">
              <mxPoint x="491" y="162" />
            </Array>
            <mxPoint x="736.8430073447494" y="73.18023634648841" as="sourcePoint" />
          </mxGeometry>
        </mxCell>
        <mxCell id="KiaBWQ_Wn1TxJdspiB7a-23" value="" style="curved=1;startArrow=none;endArrow=block;exitX=0;exitY=0.78;entryX=0;entryY=0.39;rounded=0;" edge="1" parent="1" target="KiaBWQ_Wn1TxJdspiB7a-8">
          <mxGeometry relative="1" as="geometry">
            <Array as="points">
              <mxPoint x="641" y="162" />
            </Array>
            <mxPoint x="740.0844625941227" y="81.38030708907286" as="sourcePoint" />
          </mxGeometry>
        </mxCell>
        <mxCell id="KiaBWQ_Wn1TxJdspiB7a-24" value="" style="curved=1;startArrow=none;endArrow=block;exitX=0.67;exitY=1;entryX=0.5;entryY=-0.01;rounded=0;" edge="1" parent="1" target="KiaBWQ_Wn1TxJdspiB7a-9">
          <mxGeometry relative="1" as="geometry">
            <Array as="points">
              <mxPoint x="791" y="137" />
              <mxPoint x="791" y="162" />
            </Array>
            <mxPoint x="776.8030607464693" y="95.40918223940685" as="sourcePoint" />
          </mxGeometry>
        </mxCell>
        <mxCell id="KiaBWQ_Wn1TxJdspiB7a-25" value="" style="curved=1;startArrow=none;endArrow=block;exitX=1.01;exitY=0.62;entryX=0.5;entryY=-0.01;rounded=0;" edge="1" parent="1" target="KiaBWQ_Wn1TxJdspiB7a-13">
          <mxGeometry relative="1" as="geometry">
            <Array as="points">
              <mxPoint x="1067" y="137" />
              <mxPoint x="1067" y="162" />
            </Array>
            <mxPoint x="797.2291185295321" y="72.87025421125725" as="sourcePoint" />
          </mxGeometry>
        </mxCell>
        <mxCell id="KiaBWQ_Wn1TxJdspiB7a-26" value="" style="curved=1;startArrow=none;endArrow=block;exitX=-0.01;exitY=0.71;entryX=1;entryY=0.41;rounded=0;" edge="1" parent="1" target="KiaBWQ_Wn1TxJdspiB7a-6">
          <mxGeometry relative="1" as="geometry">
            <Array as="points">
              <mxPoint x="1494" y="162" />
            </Array>
            <mxPoint x="1621.1153098707064" y="81.67642350177653" as="sourcePoint" />
          </mxGeometry>
        </mxCell>
        <mxCell id="KiaBWQ_Wn1TxJdspiB7a-27" value="" style="curved=1;startArrow=none;endArrow=block;exitX=-0.01;exitY=0.74;entryX=1;entryY=0.35;rounded=0;" edge="1" parent="1" target="KiaBWQ_Wn1TxJdspiB7a-7">
          <mxGeometry relative="1" as="geometry">
            <Array as="points">
              <mxPoint x="1514" y="162" />
            </Array>
            <mxPoint x="1621.587117694905" y="82.77129206780103" as="sourcePoint" />
          </mxGeometry>
        </mxCell>
        <mxCell id="KiaBWQ_Wn1TxJdspiB7a-28" value="" style="curved=1;startArrow=none;endArrow=block;exitX=0.49;exitY=1;entryX=0.5;entryY=0;rounded=0;" edge="1" parent="1" target="KiaBWQ_Wn1TxJdspiB7a-8">
          <mxGeometry relative="1" as="geometry">
            <Array as="points">
              <mxPoint x="1659" y="162" />
            </Array>
            <mxPoint x="1658.9999999999995" y="107.00000000000023" as="sourcePoint" />
          </mxGeometry>
        </mxCell>
        <mxCell id="KiaBWQ_Wn1TxJdspiB7a-29" value="" style="curved=1;startArrow=none;endArrow=block;exitX=0.99;exitY=0.74;entryX=1;entryY=0.33;rounded=0;" edge="1" parent="1" target="KiaBWQ_Wn1TxJdspiB7a-13">
          <mxGeometry relative="1" as="geometry">
            <Array as="points">
              <mxPoint x="1803" y="162" />
            </Array>
            <mxPoint x="1696.1873676776627" y="83.26556356462936" as="sourcePoint" />
          </mxGeometry>
        </mxCell>
        <mxCell id="KiaBWQ_Wn1TxJdspiB7a-30" value="" style="curved=1;startArrow=none;endArrow=block;exitX=0;exitY=0.72;entryX=0.5;entryY=0;rounded=0;" edge="1" parent="1" source="KiaBWQ_Wn1TxJdspiB7a-5" target="KiaBWQ_Wn1TxJdspiB7a-10">
          <mxGeometry relative="1" as="geometry">
            <Array as="points">
              <mxPoint x="1968" y="137" />
            </Array>
          </mxGeometry>
        </mxCell>
        <mxCell id="KiaBWQ_Wn1TxJdspiB7a-31" value="" style="curved=1;startArrow=none;endArrow=block;exitX=1;exitY=0.72;entryX=0.5;entryY=0;rounded=0;" edge="1" parent="1" source="KiaBWQ_Wn1TxJdspiB7a-5" target="KiaBWQ_Wn1TxJdspiB7a-11">
          <mxGeometry relative="1" as="geometry">
            <Array as="points">
              <mxPoint x="2278" y="137" />
            </Array>
          </mxGeometry>
        </mxCell>
        <mxCell id="KiaBWQ_Wn1TxJdspiB7a-32" value="" style="curved=1;startArrow=none;endArrow=block;exitX=0.88;exitY=1;entryX=0;entryY=0.41;rounded=0;" edge="1" parent="1" target="KiaBWQ_Wn1TxJdspiB7a-12">
          <mxGeometry relative="1" as="geometry">
            <Array as="points">
              <mxPoint x="143" y="137" />
              <mxPoint x="143" y="162" />
            </Array>
            <mxPoint x="117.60000000000582" y="102.80000000000791" as="sourcePoint" />
          </mxGeometry>
        </mxCell>
        <mxCell id="KiaBWQ_Wn1TxJdspiB7a-33" value="" style="curved=1;startArrow=none;endArrow=block;exitX=1.01;exitY=0.56;entryX=0.5;entryY=0;rounded=0;" edge="1" parent="1" target="KiaBWQ_Wn1TxJdspiB7a-12">
          <mxGeometry relative="1" as="geometry">
            <Array as="points">
              <mxPoint x="1349" y="137" />
              <mxPoint x="1349" y="162" />
            </Array>
            <mxPoint x="797.8726894005131" y="68.80660812731946" as="sourcePoint" />
          </mxGeometry>
        </mxCell>
        <mxCell id="KiaBWQ_Wn1TxJdspiB7a-34" value="" style="curved=1;startArrow=none;endArrow=block;exitX=0.99;exitY=0.71;entryX=1;entryY=0.27;rounded=0;" edge="1" parent="1" target="KiaBWQ_Wn1TxJdspiB7a-12">
          <mxGeometry relative="1" as="geometry">
            <Array as="points">
              <mxPoint x="1823" y="162" />
            </Array>
            <mxPoint x="1696.6849462307232" y="82.15069124173885" as="sourcePoint" />
          </mxGeometry>
        </mxCell>
        <mxCell id="KiaBWQ_Wn1TxJdspiB7a-35" value="&lt;&lt;include&gt;&gt;" style="curved=1;dashed=1;dashPattern=2 3;startArrow=none;endArrow=block;exitX=0.5;exitY=1;entryX=0.5;entryY=0;rounded=0;" edge="1" parent="1" source="KiaBWQ_Wn1TxJdspiB7a-6" target="KiaBWQ_Wn1TxJdspiB7a-14">
          <mxGeometry relative="1" as="geometry">
            <Array as="points" />
          </mxGeometry>
        </mxCell>
        <mxCell id="KiaBWQ_Wn1TxJdspiB7a-36" value="&lt;&lt;include&gt;&gt;" style="curved=1;dashed=1;dashPattern=2 3;startArrow=none;endArrow=block;exitX=0.5;exitY=1;entryX=0.5;entryY=0;rounded=0;" edge="1" parent="1" source="KiaBWQ_Wn1TxJdspiB7a-10" target="KiaBWQ_Wn1TxJdspiB7a-15">
          <mxGeometry relative="1" as="geometry">
            <Array as="points" />
          </mxGeometry>
        </mxCell>
        <mxCell id="KiaBWQ_Wn1TxJdspiB7a-37" value="&lt;&lt;include&gt;&gt;" style="curved=1;dashed=1;dashPattern=2 3;startArrow=none;endArrow=block;exitX=0;exitY=0.75;entryX=0.5;entryY=0;rounded=0;" edge="1" parent="1" source="KiaBWQ_Wn1TxJdspiB7a-12" target="KiaBWQ_Wn1TxJdspiB7a-16">
          <mxGeometry x="0.7271" y="29" relative="1" as="geometry">
            <Array as="points">
              <mxPoint x="921" y="290" />
            </Array>
            <mxPoint as="offset" />
          </mxGeometry>
        </mxCell>
        <mxCell id="KiaBWQ_Wn1TxJdspiB7a-38" value="&lt;&lt;include&gt;&gt;" style="curved=1;dashed=1;dashPattern=2 3;startArrow=none;endArrow=block;exitX=0.87;exitY=1;entryX=0.5;entryY=0;rounded=0;" edge="1" parent="1" source="KiaBWQ_Wn1TxJdspiB7a-12" target="KiaBWQ_Wn1TxJdspiB7a-17">
          <mxGeometry relative="1" as="geometry">
            <Array as="points" />
          </mxGeometry>
        </mxCell>
        <mxCell id="KiaBWQ_Wn1TxJdspiB7a-46" value="&lt;span style=&quot;text-wrap-mode: wrap;&quot;&gt;Gestor&lt;/span&gt;" style="shape=umlActor;verticalLabelPosition=bottom;verticalAlign=top;html=1;outlineConnect=0;" vertex="1" parent="1">
          <mxGeometry x="750" y="20" width="30" height="60" as="geometry" />
        </mxCell>
        <mxCell id="KiaBWQ_Wn1TxJdspiB7a-47" value="&lt;span style=&quot;text-wrap-mode: wrap;&quot;&gt;Motorista&lt;/span&gt;" style="shape=umlActor;verticalLabelPosition=bottom;verticalAlign=top;html=1;outlineConnect=0;" vertex="1" parent="1">
          <mxGeometry x="1643" y="42" width="30" height="60" as="geometry" />
        </mxCell>
        <mxCell id="KiaBWQ_Wn1TxJdspiB7a-48" value="&lt;span style=&quot;text-wrap-mode: wrap;&quot;&gt;Solicitante&lt;/span&gt;" style="shape=umlActor;verticalLabelPosition=bottom;verticalAlign=top;html=1;outlineConnect=0;" vertex="1" parent="1">
          <mxGeometry x="80" y="30" width="30" height="60" as="geometry" />
        </mxCell>
      </root>
    </mxGraphModel>
  </diagram>
</mxfile>
